<svg xmlns="http://www.w3.org/2000/svg" xmlns:xlink="http://www.w3.org/1999/xlink"    viewBox="0 0  44 34 " width="66" height="51"><g width="1550" top="0" left="0" height="1550" version="0.0.7" zoom="3" reference="X" description=" "></g><g x="4" y="4" transform="translate(4,4)" width="35" height="25" class="part" name="part" xo="0" yo="0" sref="C1" directory="Basic" liblocale="true" modelname="CapacitorIc" model="standard"><g width="200" top="280" left="0" height="200" version="0.0.1" zoom="14.999999999999977" reference="C" description="{&quot;webPage&quot;:&quot;https://pyams.sf.net/doc/Elements/Basic/CapacitorIc.html&quot;,&quot;info&quot;:&quot;&quot;}" symbolname="Capacitor Ic" symbol="{&quot;name&quot;:&quot;Capacitor&quot;,&quot;reference&quot;:&quot;C&quot;,&quot;description&quot;:&quot;Capacitor&quot;,&quot;type&quot;:&quot;std&quot;,&quot;std&quot;:{&quot;device&quot;:&quot;Capacitor&quot;,&quot;value&quot;:&quot;&quot;},&quot;lib&quot;:{&quot;file&quot;:&quot;&quot;,&quot;model&quot;:&quot;&quot;},&quot;model&quot;:null}" device="std" type="null" model="standard"></g><g points="5,15 15,15" class="polyline" name="pin" type="simple"><polyline points="5,15 15,15 " style="stroke: rgb(255, 0, 0); stroke-width: 1px;"></polyline><rect width="6" height="6" class="pin" x="2" y="12" style="stroke: rgb(0, 255, 0); fill: none; stroke-width: 1px; display: block;"></rect><text r="0" x="17" y="17" transform="rotate(0 17 17)" style="font-size: 12px; font-family: &quot;Times New Roman&quot;; display: none; fill: rgb(0, 0, 0);">p</text><text r="0" x="5" y="15" transform="rotate(0 5 15)" style="font-size: 12px; font-family: &quot;Times New Roman&quot;; display: none;">+</text><ellipse cx="13.5" cy="15" rx="1.5" ry="1.5" style="stroke: rgb(255, 0, 0); fill: rgb(255, 0, 0); stroke-width: 1px; display: none;"></ellipse><polygon points="15,13.5 15,16.5 16.5,15 " style="stroke: rgb(255, 0, 0); fill: rgb(255, 0, 0); stroke-width: 1px; display: none;"></polygon></g><g points="30,15 21,15" class="polyline" name="pin" type="simple"><polyline points="30,15 21,15 " style="stroke: rgb(255, 0, 0); stroke-width: 1px;"></polyline><rect width="6" height="6" class="pin" x="27" y="12" style="stroke: rgb(0, 255, 0); fill: none; stroke-width: 1px; display: block;"></rect><text r="0" x="21" y="17" transform="rotate(0 21 17)" style="font-size: 12px; font-family: &quot;Times New Roman&quot;; display: none; fill: rgb(0, 0, 0);">n</text><text r="0" x="30" y="15" transform="rotate(0 30 15)" style="font-size: 12px; font-family: &quot;Times New Roman&quot;; display: none;">-</text><ellipse cx="22.5" cy="15" rx="1.5" ry="1.5" style="stroke: rgb(255, 0, 0); fill: rgb(255, 0, 0); stroke-width: 1px; display: none;"></ellipse><polygon points="21,13.5 21,16.5 19.5,15 " style="stroke: rgb(255, 0, 0); fill: rgb(255, 0, 0); stroke-width: 1px; display: none;"></polygon></g><polyline points="16,15 10,15 " class="polyline" name="polyline" style="stroke: rgb(0, 0, 255); fill: none; stroke-width: 1px;"></polyline><polyline points="26,15 21,15 " class="polyline" name="polyline" style="stroke: rgb(0, 0, 255); fill: none; stroke-width: 1px;"></polyline><polyline points="16,5 16,25 " class="polyline" name="polyline" style="stroke: rgb(0, 0, 255); fill: none; stroke-width: 1px;"></polyline><path class="arc" name="arc" d="M 25.923518437263844 24.701425001453323 A 6.5 10 0 0 1 26.535787055953406 5.110636471317026" cx="27.5" cy="15" rx="6.5" ry="10" startangle="8.098960297101346" deltaangle="3.141592653589793" endangle="2.7477240428534326" style="stroke: rgb(0, 0, 255); fill: none; stroke-width: 1px;" r="1" h="1" v="1"></path><polyline points="6,10 10,10 " class="polyline" name="polyline" style="stroke: rgb(0, 0, 255); fill: none; stroke-width: 1px;"></polyline><polygon points="8,8 8,12 " class="draggable" name="polygon" style="stroke: rgb(0, 0, 255); fill: rgb(255, 123, 0); stroke-width: 1px;"></polygon></g></svg>