<svg xmlns="http://www.w3.org/2000/svg" xmlns:xlink="http://www.w3.org/1999/xlink"    viewBox="0 0  69 34 " width="103.5" height="51"><g width="1550" top="0" left="0" height="1550" version="0.0.7" zoom="3" reference="X" description=" "></g><g x="4" y="4" transform="translate(4,4)" width="60" height="25" class="part" name="part" xo="0" yo="0" sref="R1" directory="Basic" liblocale="true" modelname="NonlinearResistance" model="standard"><g width="100" top="0" left="0" height="100" version="0.0.1" zoom="10.399999999999993" reference="R" description="{&quot;webPage&quot;:&quot;https://pyams.sf.net/doc/Elements/Basic/NonlinearResistance.html&quot;,&quot;info&quot;:&quot;&quot;}" symbolname="Nonlinear Resistance" type="null" model="standard"></g><g points="5,15 15,15" class="polyline" name="pin" type="simple"><polyline points="5,15 15,15 " style="stroke: rgb(255, 0, 0); stroke-width: 1px;"></polyline><rect width="6" height="6" class="pin" x="2" y="12" style="stroke: rgb(0, 255, 0); fill: none; stroke-width: 1px; display: block;"></rect><text r="0" x="17" y="17" transform="rotate(0 17 17)" style="font-size: 12px; font-family: &quot;Times New Roman&quot;; display: none; fill: rgb(0, 0, 0);">p</text><text r="0" x="5" y="15" transform="rotate(0 5 15)" style="font-size: 12px; font-family: &quot;Times New Roman&quot;; display: none;">+</text><ellipse cx="13.5" cy="15" rx="1.5" ry="1.5" style="stroke: rgb(255, 0, 0); fill: rgb(255, 0, 0); stroke-width: 1px; display: none;"></ellipse><polygon points="15,13.5 15,16.5 16.5,15 " style="stroke: rgb(255, 0, 0); fill: rgb(255, 0, 0); stroke-width: 1px; display: none;"></polygon></g><g points="60,15 50,15" class="polyline" name="pin" type="simple"><polyline points="60,15 50,15 " style="stroke: rgb(255, 0, 0); stroke-width: 1px;"></polyline><rect width="6" height="6" class="pin" x="57" y="12" style="stroke: rgb(0, 255, 0); fill: none; stroke-width: 1px; display: block;"></rect><text r="0" x="50" y="17" transform="rotate(0 50 17)" style="font-size: 12px; font-family: &quot;Times New Roman&quot;; display: none; fill: rgb(0, 0, 0);">n</text><text r="0" x="60" y="15" transform="rotate(0 60 15)" style="font-size: 12px; font-family: &quot;Times New Roman&quot;; display: none;">-</text><ellipse cx="51.5" cy="15" rx="1.5" ry="1.5" style="stroke: rgb(255, 0, 0); fill: rgb(255, 0, 0); stroke-width: 1px; display: none;"></ellipse><polygon points="50,13.5 50,16.5 48.5,15 " style="stroke: rgb(255, 0, 0); fill: rgb(255, 0, 0); stroke-width: 1px; display: none;"></polygon></g><rect class="draggable" x="14" y="10" name="rect" width="36" height="10" style="stroke: rgb(0, 0, 255); fill: rgb(255, 255, 127); stroke-width: 1px;"></rect><polyline points="15,5 25,5 40,25 50,25 " class="polyline" name="polyline" style="stroke: rgb(0, 0, 255); fill: none; stroke-width: 1px;"></polyline></g></svg>