<svg xmlns="http://www.w3.org/2000/svg" xmlns:xlink="http://www.w3.org/1999/xlink"    viewBox="0 0  39 59 " width="58.5" height="88.5"><g width="1550" top="0" left="0" height="1550" version="0.0.7" zoom="3" reference="X" description=" "></g><g x="4" y="4" transform="translate(4,4)" width="30" height="50" class="part" name="part" xo="0" yo="0" sref="S1" directory="Basic" liblocale="true" modelname="SwitchSample" model="standard"><g width="350" top="0" left="0" height="350" version="0.0.1" zoom="6" reference="S" description="{&quot;webPage&quot;:&quot;https://pyams.sf.net/doc/Elements/Basic/Switch.html&quot;,&quot;info&quot;:&quot;&quot;}" symbolname="Voltage control switch (sample)" type="null" model="standard"></g><g points="5,25 15,25" class="polyline" name="pin" type="simple"><polyline points="5,25 15,25 " style="stroke: rgb(255, 0, 0); stroke-width: 1px;"></polyline><rect width="6" height="6" class="pin" x="2" y="22" style="stroke: rgb(0, 255, 0); fill: none; stroke-width: 1px; display: block;"></rect><text r="0" x="17" y="27" transform="rotate(0 17 27)" style="font-size: 7px; font-family: Arial; display: none; fill: rgb(0, 0, 0);">pc</text><text r="0" x="5" y="25" transform="rotate(0 5 25)" style="font-size: 7px; font-family: Arial; display: none; fill: rgb(0, 0, 0);"> </text><ellipse cx="13.5" cy="25" rx="1.5" ry="1.5" style="stroke: rgb(255, 0, 0); fill: rgb(255, 0, 0); stroke-width: 1px; display: none;"></ellipse><polygon points="15,23.5 15,26.5 16.5,25 " style="stroke: rgb(255, 0, 0); fill: rgb(255, 0, 0); stroke-width: 1px; display: none;"></polygon></g><g points="30,5 30,15" class="polyline" name="pin" type="simple"><polyline points="30,5 30,15 " style="stroke: rgb(255, 0, 0); stroke-width: 1px;"></polyline><rect width="6" height="6" class="pin" x="27" y="2" style="stroke: rgb(0, 255, 0); fill: none; stroke-width: 1px; display: block;"></rect><text r="0" x="28" y="17" transform="rotate(90 28 17)" style="font-size: 7px; font-family: Arial; display: none; fill: rgb(0, 0, 0);">p</text><text r="0" x="30" y="5" transform="rotate(0 30 5)" style="font-size: 7px; font-family: Arial; display: none; fill: rgb(0, 0, 0);"> </text><ellipse cx="30" cy="13.5" rx="1.5" ry="1.5" style="stroke: rgb(255, 0, 0); fill: rgb(255, 0, 0); stroke-width: 1px; display: none;"></ellipse><polygon points="28.5,15 31.5,15 30,16.5 " style="stroke: rgb(255, 0, 0); fill: rgb(255, 0, 0); stroke-width: 1px; display: none;"></polygon></g><g points="30,50 30,40" class="polyline" name="pin" type="simple"><polyline points="30,50 30,40 " style="stroke: rgb(255, 0, 0); stroke-width: 1px;"></polyline><rect width="6" height="6" class="pin" x="27" y="47" style="stroke: rgb(0, 255, 0); fill: none; stroke-width: 1px; display: block;"></rect><text r="0" x="28" y="38" transform="rotate(90 28 38)" style="font-size: 7px; font-family: Arial; display: none; fill: rgb(0, 0, 0);">n</text><text r="0" x="30" y="50" transform="rotate(0 30 50)" style="font-size: 7px; font-family: Arial; display: none; fill: rgb(0, 0, 0);"> </text><ellipse cx="30" cy="41.5" rx="1.5" ry="1.5" style="stroke: rgb(255, 0, 0); fill: rgb(255, 0, 0); stroke-width: 1px; display: none;"></ellipse><polygon points="28.5,40 31.5,40 30,38.5 " style="stroke: rgb(255, 0, 0); fill: rgb(255, 0, 0); stroke-width: 1px; display: none;"></polygon></g><polyline points="23,18 30,37 30,44 " class="polyline" name="polyline" style="stroke: rgb(0, 0, 255); fill: none; stroke-width: 1px;"></polyline><polyline points="9,25 19,25 15,28 20,25 15,22 " class="polyline" name="polyline" style="stroke: rgb(0, 0, 255); fill: none; stroke-width: 1px;"></polyline><polyline points="30,11 30,17 " class="polyline" name="polyline" style="stroke: rgb(0, 0, 255); fill: none; stroke-width: 1px;"></polyline></g></svg>