<svg version="1.1" id="图层_1" xmlns="http://www.w3.org/2000/svg" xmlns:xlink="http://www.w3.org/1999/xlink" x="0px" y="0px" width="800px" height="800px" viewBox="0 0 800 800" style="enable-background:new 0 0 16 16;" xml:space="preserve"><path style="fill:none;" width="16" height="16" d="M0 0H800V800H0V0z"/><path d="M705.4 343.75c-43.05 -34.2 -116.8 -53.9 -165.7 -27.8a79.55 79.55 0 0 0 -40.8 82.4 25.5 25.5 0 0 0 43.2 15.65 26 26 0 0 0 7.35 -20.2v-0.75a30 30 0 0 1 14.35 -32.75c25.55 -13.8 78 -2.95 110.15 22.6 14.35 11.4 30.15 29.8 23.9 53.35 0 0 -0.2 0.2 0 0.35a48 48 0 0 1 -23.75 32.9c-24.3 12.5 -60.15 2 -65.3 -0.2q-0.35 -0.2 -0.75 -0.35l-83.15 -27.95q-0.4 -0.2 -0.75 -0.35l-66.5 -22.4 -118.7 -349.7a25 25 0 0 0 -12.85 -14.7 24 24 0 0 0 -19.35 -1.3 25 25 0 0 0 -9.75 6.05 26 26 0 0 0 -6.25 26.1l106.4 313.5L83.5 292.35a25.5 25.5 0 0 0 -30.85 35.3 26 26 0 0 0 14.7 12.9l350.6 118.15 21.7 63.65 0.55 2.4 28.85 84.05q0.05 0.5 0.35 0.75c2.25 5.15 12.9 40.45 0.4 64.4a48.3 48.3 0 0 1 -32.35 23.55s-0.2 0.2 -0.35 0c-12.7 3.5 -32.2 2 -52.6 -23.55 -25.4 -32 -36.4 -83.9 -22.8 -108.9 1.3 -2 2.75 -4.25 4.8 -6.25a30 30 0 0 1 27.6 -8.1q0.45 0.1 0.9 0.2a25 25 0 0 0 18.75 -7.35 25 25 0 0 0 7.15 -14.55 26 26 0 0 0 -4.95 -18.6 26 26 0 0 0 -16.55 -9.55 79.5 79.5 0 0 0 -81.85 40.3c-25.8 48.55 -6.3 121.35 27.75 163.85 28.85 36.25 67.15 50.95 105 40.65 18 -4.4 34.75 -13.8 48.2 -26.85 6.25 -6.6 11.6 -14.15 15.65 -22.25 22.05 -43.05 5.9 -94.2 2.2 -104.1l-27.95 -81.3 -0.6 -1.65 -10.3 -30.55 30 10.1q0.45 0.1 0.9 0.2l82 27.6c10.1 3.5 62.35 20.05 106.1 -2.4 8.45 -4.4 16.35 -10.1 23.15 -16.9l0.2 -0.2c12.85 -13.25 22.25 -29.6 26.85 -47.45 10.35 -38.25 -4.7 -76.9 -41.3 -106.15M481 646.5"/></svg>