<?xml version="1.0" encoding="UTF-8" standalone="no"?>
<svg
   version="1.1"
   id="图层_1"
   x="0px"
   y="0px"
   width="800px"
   height="800px"
   viewBox="0 0 800 800"
   style="enable-background:new 0 0 16 16;"
   xml:space="preserve"
   sodipodi:docname="svgviewer-output (3).svg"
   inkscape:version="1.4.2 (f4327f4, 2025-05-13)"
   xmlns:inkscape="http://www.inkscape.org/namespaces/inkscape"
   xmlns:sodipodi="http://sodipodi.sourceforge.net/DTD/sodipodi-0.dtd"
   xmlns="http://www.w3.org/2000/svg"
   xmlns:svg="http://www.w3.org/2000/svg"><defs
     id="defs3"><inkscape:path-effect
       effect="fillet_chamfer"
       id="path-effect3"
       is_visible="true"
       lpeversion="1"
       nodesatellites_param="F,0,0,1,0,0,0,1 @ F,0,0,1,0,0,0,1 @ F,0,0,1,0,0,0,1 @ F,0,0,1,0,0,0,1 @ F,0,0,1,0,0,0,1 @ F,0,0,1,0,0,0,1 @ F,0,0,1,0,0,0,1 @ F,0,0,1,0,0,0,1 | F,0,0,1,0,0,0,1 @ F,0,0,1,0,0,0,1 @ F,0,0,1,0,0,0,1"
       radius="0"
       unit="px"
       method="auto"
       mode="F"
       chamfer_steps="1"
       flexible="false"
       use_knot_distance="true"
       apply_no_radius="true"
       apply_with_radius="true"
       only_selected="false"
       hide_knots="false" /></defs><sodipodi:namedview
     id="namedview3"
     pagecolor="#ffffff"
     bordercolor="#000000"
     borderopacity="0.25"
     inkscape:showpageshadow="2"
     inkscape:pageopacity="0.0"
     inkscape:pagecheckerboard="0"
     inkscape:deskcolor="#d1d1d1"
     inkscape:zoom="1.01875"
     inkscape:cx="400"
     inkscape:cy="400"
     inkscape:window-width="1920"
     inkscape:window-height="1017"
     inkscape:window-x="-8"
     inkscape:window-y="-8"
     inkscape:window-maximized="1"
     inkscape:current-layer="g3" /><path
     style="fill:none;"
     width="16"
     height="16"
     d="M0 0H800V800H0V0z"
     id="path1" /><g
     id="g3"><path
       d="m69.6 748.1 712.55 -248.4a24 24 0 0 0 16.8 -23.3 24.5 24.5 0 0 0 -25 -25.3H52.2c-28.25 0 -51.15 22.1 -51.15 49.35v201.2c0 34.2 35.2 58.05 68.55 46.45m-17.4 -247.05h574.1L51.05 701.65z"
       id="path2"
       style="fill:#008080" /><path
       d="m 798.95,325.8 c 0.17914,-10.63051 -6.65723,-20.1119 -16.8,-23.3 L 69.6,54.05 C 36.25,42.45 1.1,66.25 1.1,100.5 v 201.2 c 0,27.25 22.9,49.35 51.15,49.35 h 721.7 c 15.95,0 25,-12.65 25,-25.25 M 52.2,301.05 51.05,100.5 626.25,301.1 Z"
       id="path3"
       style="fill:#008080"
       inkscape:path-effect="#path-effect3"
       inkscape:original-d="m 798.95,325.8 a 24,24 0 0 0 -16.8,-23.3 L 69.6,54.05 C 36.25,42.45 1.1,66.25 1.1,100.5 v 201.2 c 0,27.25 22.9,49.35 51.15,49.35 h 721.7 c 15.95,0 25,-12.65 25,-25.25 M 52.2,301.05 51.05,100.5 626.25,301.1 Z" /><rect
       style="fill:#c83737"
       id="rect3"
       width="763.68097"
       height="34.355827"
       x="18.650307"
       y="386.74847"
       ry="17.177914" /></g></svg>
