<?xml version="1.0" encoding="UTF-8" standalone="no"?>
<svg
   version="1.1"
   id="图层_1"
   x="0px"
   y="0px"
   width="800px"
   height="800px"
   viewBox="0 0 800 800"
   style="enable-background:new 0 0 16 16;"
   xml:space="preserve"
   sodipodi:docname="svgviewer-output (2).svg"
   inkscape:version="1.4.2 (f4327f4, 2025-05-13)"
   xmlns:inkscape="http://www.inkscape.org/namespaces/inkscape"
   xmlns:sodipodi="http://sodipodi.sourceforge.net/DTD/sodipodi-0.dtd"
   xmlns="http://www.w3.org/2000/svg"
   xmlns:svg="http://www.w3.org/2000/svg"><defs
     id="defs3" /><sodipodi:namedview
     id="namedview3"
     pagecolor="#ffffff"
     bordercolor="#000000"
     borderopacity="0.25"
     inkscape:showpageshadow="2"
     inkscape:pageopacity="0.0"
     inkscape:pagecheckerboard="0"
     inkscape:deskcolor="#d1d1d1"
     inkscape:zoom="1.01875"
     inkscape:cx="400"
     inkscape:cy="400"
     inkscape:window-width="1920"
     inkscape:window-height="1017"
     inkscape:window-x="-8"
     inkscape:window-y="-8"
     inkscape:window-maximized="1"
     inkscape:current-layer="g3" /><path
     style="fill:none;"
     width="16"
     height="16"
     d="M0 0H800V800H0V0z"
     id="path1" /><g
     id="g3"><path
       d="M 747,731.5 498.6,18.95 C 495.4119,8.8072283 485.93051,1.9708559 475.3,2.15 461.25867,1.6881768 449.70569,13.104165 450,27.15 v 721.7 c 0,28.25 22.1,51.15 49.35,51.15 h 201.2 c 34.25,0 58.1,-35.15 46.45,-68.5 M 500,748.85 V 174.8 L 700.6,750 Z"
       id="path2"
       sodipodi:nodetypes="ccccsssccccc"
       style="fill:#008080" /><path
       d="M 324.7,2.15 C 314.06949,1.9708559 304.5881,8.8072283 301.4,18.95 L 53,731.5 C 41.35,764.85 65.2,800 99.4,800 h 201.2 c 27.3,0 49.4,-22.9 49.4,-51.15 V 27.15 c 0,-15.95 -12.65,-25 -25.3,-25 M 300,748.85 99.4,750 300,174.8 Z"
       id="path3"
       sodipodi:nodetypes="cccssssccccc"
       style="fill:#008080" /></g><rect
     style="fill:#c83737"
     id="rect3"
     width="38.282207"
     height="785.27606"
     x="379.87732"
     y="2.9447854"
     ry="17.177914" /><rect
     style="fill:#808000"
     id="rect4"
     width="23.558283"
     height="0.9815951"
     x="376.93253"
     y="739.14111"
     ry="0.49079755" /></svg>
