<svg version="1.1" id="图层_1" xmlns="http://www.w3.org/2000/svg" xmlns:xlink="http://www.w3.org/1999/xlink" x="0px" y="0px" width="800px" height="800px" viewBox="0 0 800 800" style="enable-background:new 0 0 16 16;" xml:space="preserve"><path style="fill:none;" width="16" height="16" d="M0 0H800V800H0V0z"/><g><path d="M725 400h-300V75a25 25 0 0 0 -50 0V400h-300a25 25 0 0 0 0 50h650a25 25 0 0 0 0 -50"/><path d="M575 550h-350a25 25 0 0 0 0 50h350a25 25 0 0 0 0 -50"/><path d="M425 700h-50a25 25 0 0 0 0 50h50a25 25 0 0 0 0 -50"/></g></svg>