<?xml version="1.0" encoding="UTF-8" standalone="no"?>
<svg
   version="1.1"
   id="图层_1"
   x="0px"
   y="0px"
   width="800px"
   height="800px"
   viewBox="0 0 800 800"
   style="enable-background:new 0 0 16 16;"
   xml:space="preserve"
   sodipodi:docname="svgviewer-output (1).svg"
   inkscape:version="1.4.2 (f4327f4, 2025-05-13)"
   xmlns:inkscape="http://www.inkscape.org/namespaces/inkscape"
   xmlns:sodipodi="http://sodipodi.sourceforge.net/DTD/sodipodi-0.dtd"
   xmlns="http://www.w3.org/2000/svg"
   xmlns:svg="http://www.w3.org/2000/svg"><defs
     id="defs4" /><sodipodi:namedview
     id="namedview4"
     pagecolor="#ffffff"
     bordercolor="#000000"
     borderopacity="0.25"
     inkscape:showpageshadow="2"
     inkscape:pageopacity="0.0"
     inkscape:pagecheckerboard="0"
     inkscape:deskcolor="#d1d1d1"
     showgrid="false"
     inkscape:zoom="1.01875"
     inkscape:cx="400"
     inkscape:cy="400"
     inkscape:window-width="1920"
     inkscape:window-height="1017"
     inkscape:window-x="-8"
     inkscape:window-y="-8"
     inkscape:window-maximized="1"
     inkscape:current-layer="g4" /><path
     style="fill:none;"
     width="16"
     height="16"
     d="M0 0H800V800H0V0z"
     id="path1" /><g
     id="g4"><path
       d="M274.7 2.15a24 24 0 0 0 -23.3 16.8L3 731.5c-11.65 33.35 12.2 68.5 46.4 68.5h201.2c27.3 0 49.4 -22.9 49.4 -51.15V27.15c0 -15.95 -12.65 -25 -25.3 -25m-224.5 745.8 199.95 -573.5L250.65 750z"
       id="path2"
       style="fill:#008080" /><path
       d="m787.2 746.45 -348.05 -236.55A56 56 0 0 0 407.5 500C377.7 500 350 524.15 350 558.55v183C350 773.85 375.65 800 407.35 800h363.95c28.35 0 39.5 -37.5 15.9 -53.55M407.35 750C403.3 750 400 746.2 400 741.55v-183A8 8 0 0 1 407.5 550c0.8 0 1.9 0.15 3.55 1.25L703.45 750z"
       id="path3"
       style="fill:#008080" /><path
       d="M472.4 247a25 25 0 0 0 41.9 -27.3l-21 -32.3c65.45 23.15 121.15 64.5 157.8 120.7 41.5 63.7 57.35 142.2 44.65 220.95a25 25 0 1 0 49.35 7.95c14.7 -91.05 -3.8 -182 -52.15 -256.15 -43.9 -67.4 -110.45 -117.55 -189.1 -143.8l32.35 -21.1a25 25 0 0 0 -27.3 -41.9L425.15 128.65a25 25 0 0 0 -7.3 34.6z"
       id="path4"
       style="fill:#c83737" /></g></svg>
