<svg version="1.1" id="图层_1" xmlns="http://www.w3.org/2000/svg" xmlns:xlink="http://www.w3.org/1999/xlink" x="0px" y="0px" width="800px" height="800px" viewBox="0 0 800 800" style="enable-background:new 0 0 16 16;" xml:space="preserve"><path style="fill:none;" width="16" height="16" d="M0 0H800V800H0V0z"/><path d="M750 250h-200V50c0 -27.5 -22.5 -50 -50 -50H50C22.5 0 0 22.5 0 50v450c0 27.5 22.5 50 50 50h200v200c0 27.5 22.5 50 50 50h214.3c13.25 0 26 -5.25 35.35 -14.65l235.7 -235.7a50 50 0 0 0 14.65 -35.35V300c0 -27.5 -22.5 -50 -50 -50M250 300v200H50V50h450v200H300c-27.5 0 -50 22.5 -50 50m50 0h450v200h-200c-27.5 0 -50 22.5 -50 50v200H300zm415 250L550 715V550z"/></svg>