<svg xmlns="http://www.w3.org/2000/svg" xmlns:xlink="http://www.w3.org/1999/xlink"    viewBox="0 0  64 39 " width="96" height="58.5"><g width="1550" top="0" left="0" height="1550" version="0.0.7" zoom="3" reference="X" description=" "></g><g x="4" y="4" transform="translate(4,4)" width="55" height="30" class="part" name="part" xo="0" yo="0" sref="L1" directory="Basic" liblocale="true" modelname="InductorIc" model="standard"><g width="200" top="565" left="0" height="200" version="0.0.1" zoom="13.199999999999983" reference="L" description="{&quot;webPage&quot;:&quot;https://pyams.sf.net/doc/Elements/Basic/InductorIc.html&quot;,&quot;info&quot;:&quot;&quot;}" symbolname="Inductor Ic" device="std" type="null" model="standard"></g><g points="5,15 15,15" class="polyline" name="pin" type="simple"><polyline points="5,15 15,15 " style="stroke: rgb(255, 0, 0); stroke-width: 1px;"></polyline><rect width="6" height="6" class="pin" x="2" y="12" style="stroke: rgb(0, 255, 0); fill: none; stroke-width: 1px; display: block;"></rect><text r="0" x="17" y="17" transform="rotate(0 17 17)" style="font-size: 12px; font-family: &quot;Times New Roman&quot;; display: none; fill: rgb(0, 0, 0);">p</text><text r="0" x="5" y="15" transform="rotate(0 5 15)" style="font-size: 12px; font-family: &quot;Times New Roman&quot;; display: none;">+</text><ellipse cx="13.5" cy="15" rx="1.5" ry="1.5" style="stroke: rgb(255, 0, 0); fill: rgb(255, 0, 0); stroke-width: 1px; display: none;"></ellipse><polygon points="15,13.5 15,16.5 16.5,15 " style="stroke: rgb(255, 0, 0); fill: rgb(255, 0, 0); stroke-width: 1px; display: none;"></polygon></g><g points="55,15 45,15" class="polyline" name="pin" type="simple"><polyline points="55,15 45,15 " style="stroke: rgb(255, 0, 0); stroke-width: 1px;"></polyline><rect width="6" height="6" class="pin" x="52" y="12" style="stroke: rgb(0, 255, 0); fill: none; stroke-width: 1px; display: block;"></rect><text r="0" x="45" y="17" transform="rotate(0 45 17)" style="font-size: 12px; font-family: &quot;Times New Roman&quot;; display: none; fill: rgb(0, 0, 0);">n</text><text r="0" x="55" y="15" transform="rotate(0 55 15)" style="font-size: 12px; font-family: &quot;Times New Roman&quot;; display: none;">-</text><ellipse cx="46.5" cy="15" rx="1.5" ry="1.5" style="stroke: rgb(255, 0, 0); fill: rgb(255, 0, 0); stroke-width: 1px; display: none;"></ellipse><polygon points="45,13.5 45,16.5 43.5,15 " style="stroke: rgb(255, 0, 0); fill: rgb(255, 0, 0); stroke-width: 1px; display: none;"></polygon></g><path class="arc" name="arc" d="M 16 15.000000000000004 A 6 12 0 1 1 26.24264068711929 23.48528137423856" cx="22" cy="15" rx="6" ry="12" startangle="9.42477796076938" deltaangle="3.141592653589793" endangle="3.9269908169872405" style="stroke: rgb(0, 0, 255); fill: none; stroke-width: 1px;" r="1" h="1" v="1"></path><polyline points="16,15 10,15 " class="polyline" name="polyline" style="stroke: rgb(0, 0, 255); fill: none; stroke-width: 1px;"></polyline><polyline points="50,15 44,15 " class="polyline" name="polyline" style="stroke: rgb(0, 0, 255); fill: none; stroke-width: 1px;"></polyline><path class="arc" name="arc" d="M 26.09525175926419 24.11107922838356 A 6 12 0 1 1 33.841106397986884 24.2186553551685" cx="30" cy="15" rx="6" ry="12" startangle="8.562607906102153" deltaangle="3.141592653589793" endangle="4.879820758855213" style="stroke: rgb(0, 0, 255); fill: none; stroke-width: 1px;" r="1" h="1" v="1"></path><path class="arc" name="arc" d="M 34.09525175926419 24.11107922838356 A 6 12 0 1 1 44 14.999999999999995" cx="38" cy="15" rx="6" ry="12" startangle="8.562607906102153" deltaangle="3.141592653589793" endangle="4.003762708257019" style="stroke: rgb(0, 0, 255); fill: none; stroke-width: 1px;" r="1" h="1" v="1"></path><polygon points="10,8 10,12 " class="draggable" name="polygon" style="stroke: rgb(0, 0, 255); fill: rgb(255, 123, 0); stroke-width: 1px;"></polygon><polyline points="12,10 8,10 " class="polyline" name="polyline" style="stroke: rgb(0, 0, 255); fill: none; stroke-width: 1px;"></polyline></g></svg>